<svg xmlns="http://www.w3.org/2000/svg" viewBox="0 0 100 100" width="100" height="100">
  <g stroke="#7f8c8d" stroke-width="3" fill="none" stroke-linecap="round" stroke-linejoin="round">
    <line x1="20" y1="30" x2="20" y2="95" />
    <line x1="80" y1="30" x2="80" y2="95" />
    
    <line x1="10" y1="70" x2="90" y2="70" stroke-width="4" stroke="#95a5a6"/>
    
    <line x1="20" y1="70" x2="80" y2="95" stroke-width="2"/>
    <line x1="80" y1="70" x2="20" y2="95" stroke-width="2"/>
    <line x1="20" y1="45" x2="80" y2="70" stroke-width="2"/>
    <line x1="80" y1="45" x2="20" y2="70" stroke-width="2"/>
  </g>

  <ellipse cx="40" cy="68" rx="7" ry="3" fill="#f39c12" />
  <ellipse cx="60" cy="68" rx="7" ry="3" fill="#f39c12" />

  <ellipse cx="50" cy="45" rx="18" ry="24" fill="#2c3e50" />
  <ellipse cx="50" cy="48" rx="12" ry="18" fill="#ecf0f1" />

  <circle cx="50" cy="22" r="13" fill="#2c3e50" />

  <circle cx="45" cy="20" r="3" fill="white" />
  <circle cx="45" cy="20" r="1.5" fill="black" />
  <circle cx="55" cy="20" r="3" fill="white" />
  <circle cx="55" cy="20" r="1.5" fill="black" />

  <polygon points="50,23 45,29 55,29" fill="#f39c12" />

  <path d="M 35 40 Q 20 50 20 60" fill="none" stroke="#2c3e50" stroke-width="6" stroke-linecap="round" />
  <ellipse cx="68" cy="45" rx="5" ry="14" fill="#2c3e50" transform="rotate(20 68 45)" />

  <path d="M 36 17 Q 50 2 64 17 Z" fill="#f1c40f" />
  <line x1="34" y1="17" x2="66" y2="17" stroke="#f1c40f" stroke-width="2.5" stroke-linecap="round"/>
</svg>